<svg width="80" height="80" viewBox="0 0 80 80" fill="none" xmlns="http://www.w3.org/2000/svg">
<path d="M79.2887 16.9678C78.8444 16.6553 78.2747 16.5787 77.7637 16.7676L64.1766 21.709C62.492 22.3211 61.1508 23.5548 60.4005 25.1823C60.2598 25.4875 60.1675 25.8045 60.075 26.1211C57.7419 25.4578 53.4059 24.0725 49.0969 21.8523C42.5855 18.4972 37.6109 20.1543 33.3444 23.4087C31.1825 23.4512 28.2028 23.7068 25.2738 23.965C23.4053 24.1298 21.6395 24.2815 20.2077 24.3689C20.1725 23.5089 19.9713 22.6554 19.6 21.8492C18.8497 20.2215 17.5086 18.9878 15.8239 18.3759L2.23641 13.4342C1.72703 13.247 1.15406 13.3236 0.711406 13.6343C0.265312 13.947 0 14.4564 0 15V48.3333C0 49.2545 0.745469 50 1.66672 50H6.53484C8.60531 50 10.5316 49.0234 11.7767 47.4465C12.44 47.9509 13.2256 48.5415 14.0495 49.1601C15.9945 50.6234 18.1234 52.22 19.0577 53.0029C25.2638 58.1983 32.7247 63.8086 34.2106 64.7851C35.5989 65.6965 38.0989 66.6667 40 66.6667C40.7438 66.6667 42.6172 66.6667 43.9323 65.555C45.2881 66.0872 46.7497 66.0612 48.1087 65.4622C49.4645 64.8648 50.5616 63.7386 51.1995 62.3697C52.5016 62.6365 53.9973 62.4412 55.3531 61.7609C56.6242 61.1245 57.5602 60.1609 58.0614 59.0347C59.2658 59.1453 60.5517 58.7531 61.7023 57.8725C63.3464 56.6158 64.0992 54.7598 63.8863 52.9289L68.1139 50.59C69.352 52.2683 71.3198 53.3331 73.465 53.3331H78.3331C79.2544 53.3331 79.9998 52.5876 79.9998 51.6664V18.3334C80 17.7897 79.7347 17.2803 79.2887 16.9678ZM9.65656 44.5036C9.17156 45.7975 7.91672 46.6667 6.53484 46.6667H3.33328V17.3795L14.6842 21.5072C15.5273 21.8148 16.198 22.4317 16.5722 23.2454C16.9481 24.0592 16.9808 24.9708 16.6666 25.8089L9.65656 44.5036ZM59.6794 55.2247C59.1145 55.6576 58.3236 55.8986 57.972 55.547C57.9541 55.529 57.9262 55.5308 57.9078 55.5136C57.8759 55.484 57.8602 55.4442 57.8256 55.4167C56.6342 54.4759 51.2956 49.0137 47.9966 45.5729C47.3602 44.9073 46.3039 44.8828 45.6414 45.5225C44.9758 46.1589 44.953 47.2136 45.5909 47.8776C46.3653 48.6859 52.5816 55.1601 55.0695 57.4243C54.8838 58.1562 54.2053 58.6081 53.8608 58.7809C52.7931 59.3164 51.6798 59.2268 51.2631 58.8395C51.2508 58.8279 51.2323 58.8286 51.2195 58.8173C51.1992 58.7992 51.1902 58.7737 51.1686 58.7565C49.1698 57.1598 44.1553 51.8311 43.0208 50.5973C42.3973 49.9186 41.3444 49.8762 40.6656 50.4981C39.9886 51.1215 39.943 52.1762 40.5664 52.8533C40.6211 52.9125 45.5355 58.2136 48.2956 60.6759C48.0244 61.4553 47.4717 62.1008 46.7627 62.4137C46.2394 62.6462 45.4209 62.7654 44.4858 62.0743C42.0923 60.045 37.2891 54.932 36.3444 53.9209C35.7178 53.247 34.6598 53.2129 33.9892 53.8412C33.317 54.4695 33.2812 55.5242 33.9095 56.1964C35.0295 57.3951 38.34 60.9039 40.8566 63.2797C40.5755 63.3139 40.2803 63.3334 40 63.3334C38.8964 63.3334 37.0003 62.6287 36.0417 61.9987C34.8731 61.2304 27.5358 55.7553 21.1995 50.4492C20.2409 49.6451 18.0534 47.9997 16.0514 46.4958C14.9784 45.6903 13.9898 44.9476 13.2613 44.3872L19.5016 27.744C21.1214 27.6733 23.2809 27.4865 25.5664 27.285C26.8591 27.1711 28.1531 27.06 29.3897 26.9637C27.4891 28.9148 24.6633 32.4093 25.0358 35.685C25.2067 37.1759 26.0222 38.4178 27.3975 39.2772C30.1205 40.9812 35.1613 39.5522 37.5895 36.5656C39.1569 36.3393 40.2166 35.939 41.372 35.3661C43.3252 37.202 45.9439 39.3603 48.6947 41.6275C53.4831 45.5728 58.9111 50.0454 60.3467 52.5536C61.1458 53.9486 60.0375 54.9512 59.6794 55.2247ZM62.5386 49.8647C60.318 46.894 55.5042 42.9195 50.8138 39.0543C47.6872 36.4778 44.7347 34.0445 42.845 32.155C42.3242 31.6373 41.525 31.5201 40.8805 31.8636C39.1828 32.7734 38.418 33.1493 36.5006 33.3414C35.9895 33.3934 35.5306 33.6767 35.2572 34.1112C33.9502 36.1848 30.3173 37.1711 29.165 36.4517C28.5106 36.0415 28.3838 35.6248 28.348 35.3075C28.1869 33.8898 29.6223 31.4354 32.0036 29.0526C37.9005 23.1558 42.1159 22.0018 47.57 24.8143C52.7519 27.4861 57.8661 28.9967 60.013 29.5673C60.075 29.817 60.12 30.0692 60.2116 30.314L66.683 47.572L62.5386 49.8647ZM76.6667 50H73.4652C72.0833 50 70.8284 49.1308 70.3434 47.8368L63.3333 29.1439C63.0192 28.304 63.0517 27.3926 63.4277 26.5787C63.802 25.765 64.4727 25.1481 65.3156 24.8404L76.6666 20.7128V50H76.6667Z" fill="black"/>
</svg>
