<svg width="101" height="35" viewBox="0 0 101 35" fill="none" xmlns="http://www.w3.org/2000/svg">
<path d="M14.502 27L7.04883 5.53711H6.9082C7.10742 8.72461 7.20703 11.7129 7.20703 14.502V27H3.39258V1.30078H9.31641L16.4531 21.7441H16.5586L23.9062 1.30078H29.8477V27H25.8047V14.291C25.8047 13.0137 25.834 11.3496 25.8926 9.29883C25.9629 7.24805 26.0215 6.00586 26.0684 5.57227H25.9277L18.2109 27H14.502ZM33.3633 34.1719C32.2148 34.1719 31.2539 34.0254 30.4805 33.7324V30.1992C31.4648 30.4453 32.3203 30.5684 33.0469 30.5684C35.3438 30.5684 36.4922 29.1152 36.4922 26.209V1.30078H40.7109V26.0684C40.7109 28.6934 40.084 30.6973 38.8301 32.0801C37.5879 33.4746 35.7656 34.1719 33.3633 34.1719Z" fill="#468FFD"/>
<path d="M60.4336 9.26953C60.4336 12.1445 59.6797 14.3203 58.1719 15.7969C56.6641 17.2656 54.4492 18 51.5273 18H47.4258V0.867188H52.0547C54.7891 0.867188 56.8672 1.58203 58.2891 3.01172C59.7188 4.44141 60.4336 6.52734 60.4336 9.26953ZM59.1328 9.31641C59.1328 6.86328 58.5078 5.01953 57.2578 3.78516C56.0156 2.54297 54.1875 1.92188 51.7734 1.92188H48.6211V16.9453H51.457C56.5742 16.9453 59.1328 14.4023 59.1328 9.31641ZM74.9344 18H65.5711V0.867188H74.9344V1.96875H66.7664V8.44922H74.4773V9.55078H66.7664V16.8984H74.9344V18ZM90.1383 0.867188H91.4391L85.0289 18H83.9742L77.5875 0.867188H78.8648L83.1773 12.5273C83.8336 14.2852 84.275 15.6055 84.5016 16.4883C84.6578 15.9023 84.9664 14.9922 85.4273 13.7578L90.1383 0.867188Z" fill="white"/>
<line x1="45" y1="20.5" x2="93" y2="20.5" stroke="white"/>
</svg>
