<svg width="80" height="80" viewBox="0 0 80 80" fill="none" xmlns="http://www.w3.org/2000/svg">
<path d="M67.9844 46.5938L67.6137 46.7938C66.1166 44.9769 63.5226 44.2729 61.5464 45.2744C61.5394 45.2779 61.5323 45.2816 61.5255 45.2852L60.6505 45.7563C59.6069 44.8727 58.3163 44.3326 56.9545 44.2095C55.5927 44.0865 54.2261 44.3865 53.0411 45.0688L48.3294 47.6313H42.0597C40.7021 47.6295 39.3623 47.3225 38.1394 46.733L37.2769 46.3158C34.8213 45.1211 32.0831 44.6292 29.3652 44.8946C26.6474 45.16 24.0561 46.1724 21.8781 47.8197C21.8576 47.8353 21.8376 47.851 21.8186 47.8686L19.7362 49.7224C18.9493 50.4213 18.0191 50.9398 17.0108 51.2416L15.8281 47.3594C15.7695 47.1673 15.6507 46.999 15.4893 46.8794C15.3279 46.7599 15.1323 46.6954 14.9314 46.6954H4.86061C4.72792 46.6953 4.59674 46.7235 4.47574 46.778C4.35475 46.8325 4.24669 46.912 4.15873 47.0113C4.07076 47.1107 4.00488 47.2276 3.96545 47.3542C3.92602 47.4809 3.91393 47.6146 3.92998 47.7463L7.28686 75.2713C7.31457 75.4986 7.42452 75.7079 7.59596 75.8597C7.76741 76.0115 7.98849 76.0954 8.21748 76.0954H23.3228C23.4693 76.0954 23.6138 76.061 23.7446 75.9951C23.8754 75.9292 23.989 75.8335 24.0762 75.7158C24.1634 75.598 24.2218 75.4615 24.2467 75.3171C24.2715 75.1727 24.2622 75.0246 24.2195 74.8844L22.2351 68.3729L28.4155 64.4666C29.2424 64.009 30.2126 63.8835 31.1287 64.1155C31.1481 64.1203 31.1676 64.1247 31.1873 64.1282L43.7591 66.4432C47.1756 67.0545 50.698 66.5571 53.8117 65.0238C53.8515 65.0042 53.8898 64.9817 53.9264 64.9566L75.6708 50.0266C75.8678 49.8913 76.0057 49.686 76.0563 49.4525C76.1069 49.2189 76.0665 48.9749 75.9433 48.7702C75.1521 47.4525 73.883 46.4907 72.4004 46.0853C70.9179 45.6799 69.336 45.862 67.9844 46.5938ZM62.4036 46.9419C63.5466 46.3696 64.9855 46.8388 65.9045 47.7158L57.6589 52.1643L57.1745 52.4194C56.9134 51.6781 56.5318 50.9849 56.0451 50.3677L62.4036 46.9419ZM53.9484 46.7099C53.9558 46.7057 53.9641 46.7016 53.9706 46.6972C54.7091 46.2703 55.5486 46.0494 56.4016 46.0574C57.2546 46.0655 58.0898 46.3022 58.8201 46.7428L54.6278 49C53.8286 48.4167 52.9166 48.0063 51.95 47.7949L53.9484 46.7099ZM9.04686 74.2204L5.91952 48.5704H14.2365L22.0569 74.2204H9.04686ZM52.9194 63.3718C50.1817 64.7044 47.0918 65.1338 44.0945 64.598L31.5537 62.2886C30.1743 61.9481 28.717 62.1456 27.478 62.841C27.4634 62.8489 27.4489 62.8577 27.4347 62.8668L21.6667 66.5132L17.5573 53.0364C18.8245 52.6546 19.9931 52.001 20.9819 51.1213L23.0348 49.2932C24.9369 47.8632 27.1967 46.9859 29.5654 46.7581C31.9341 46.5302 34.3198 46.9606 36.4595 48.0018L37.3219 48.4189C38.7995 49.1311 40.4183 49.5021 42.0586 49.5043H50.4219C51.6509 49.506 52.841 49.9357 53.7876 50.7195C54.7343 51.5034 55.3784 52.5924 55.6094 53.7996L49.5476 53.5254C47.344 53.4263 45.1359 53.5283 42.9508 53.8302C42.7064 53.8665 42.4862 53.9977 42.3381 54.1955C42.19 54.3932 42.1259 54.6414 42.1598 54.8861C42.1937 55.1309 42.3228 55.3523 42.5191 55.5023C42.7153 55.6524 42.9629 55.7189 43.208 55.6874C45.2798 55.401 47.3734 55.3044 49.4628 55.3986L56.5965 55.7213C56.6108 55.7213 56.625 55.7222 56.639 55.7222C56.8877 55.7222 57.1261 55.6235 57.302 55.4476C57.4778 55.2718 57.5765 55.0334 57.5765 54.7847C57.5765 54.633 57.5701 54.4827 57.5609 54.3332L58.5392 53.8175L68.875 48.2432C69.6688 47.8133 70.5823 47.6577 71.4736 47.8006C72.3649 47.9435 73.1841 48.3768 73.8037 49.0332L52.9194 63.3718Z" fill="black"/>
<path d="M12.0272 70.3419C12.0272 70.9256 12.2003 71.4963 12.5246 71.9817C12.8489 72.4671 13.3099 72.8454 13.8492 73.0688C14.3885 73.2922 14.982 73.3506 15.5545 73.2367C16.1271 73.1228 16.653 72.8417 17.0658 72.429C17.4786 72.0162 17.7597 71.4902 17.8736 70.9177C17.9875 70.3452 17.929 69.7517 17.7056 69.2124C17.4822 68.673 17.1039 68.2121 16.6185 67.8877C16.1331 67.5634 15.5625 67.3903 14.9787 67.3903C14.1962 67.3912 13.4459 67.7024 12.8926 68.2558C12.3393 68.8091 12.028 69.5593 12.0272 70.3419ZM14.9787 69.2653C15.1916 69.2653 15.3998 69.3285 15.5768 69.4468C15.7539 69.565 15.8919 69.7332 15.9733 69.9299C16.0548 70.1266 16.0761 70.3431 16.0346 70.5519C15.9931 70.7607 15.8905 70.9526 15.74 71.1031C15.5894 71.2537 15.3976 71.3562 15.1887 71.3978C14.9799 71.4393 14.7635 71.418 14.5667 71.3365C14.37 71.255 14.2019 71.117 14.0836 70.94C13.9653 70.7629 13.9022 70.5548 13.9022 70.3419C13.9027 70.0565 14.0162 69.783 14.218 69.5813C14.4198 69.3796 14.6934 69.266 14.9787 69.2656V69.2653Z" fill="black"/>
<path d="M47.1284 14.1101V11.0208C47.1196 9.13922 46.366 7.33774 45.0324 6.01039C43.6988 4.68304 41.8938 3.93787 40.0122 3.93787C38.1307 3.93787 36.3257 4.68304 34.9921 6.01039C33.6585 7.33774 32.9049 9.13922 32.8961 11.0208V14.1101C32.9049 15.9917 33.6585 17.7932 34.9921 19.1205C36.3257 20.4479 38.1307 21.1931 40.0122 21.1931C41.8938 21.1931 43.6988 20.4479 45.0324 19.1205C46.366 17.7932 47.1196 15.9917 47.1284 14.1101ZM34.7711 14.1101V11.0208C34.7786 9.63568 35.3341 8.3099 36.3162 7.33316C37.2983 6.35642 38.6271 5.80814 40.0122 5.80814C41.3973 5.80814 42.7261 6.35642 43.7082 7.33316C44.6903 8.3099 45.2458 9.63568 45.2534 11.0208V14.1101C45.2458 15.4952 44.6903 16.821 43.7082 17.7978C42.7261 18.7745 41.3973 19.3228 40.0122 19.3228C38.6271 19.3228 37.2983 18.7745 36.3162 17.7978C35.3341 16.821 34.7786 15.4952 34.7711 14.1101Z" fill="black"/>
<path d="M28.5419 40.5352H51.4828C51.7315 40.5352 51.9699 40.4364 52.1457 40.2606C52.3215 40.0848 52.4203 39.8463 52.4203 39.5977V37.4458H68.125C68.3736 37.4458 68.6121 37.347 68.7879 37.1712C68.9637 36.9954 69.0625 36.757 69.0625 36.5083V30.4233C69.0615 28.6378 68.3808 26.9197 67.1588 25.6179C65.9368 24.3161 64.265 23.5283 62.4831 23.4146C61.9831 23.3778 61.7261 23.6944 61.5177 23.9486C61.1029 24.4554 60.5779 24.8608 59.9827 25.1339C59.3876 25.4071 58.7379 25.5407 58.0832 25.5247C57.4286 25.5087 56.7862 25.3435 56.2051 25.0417C55.6239 24.7398 55.1194 24.3093 54.7298 23.7829C54.6403 23.6617 54.523 23.5639 54.3877 23.4977C54.2523 23.4315 54.1031 23.399 53.9525 23.4027C52.7347 23.43 51.5454 23.777 50.5039 24.4088C49.8163 23.6092 48.9752 22.9558 48.0305 22.4872C47.0857 22.0186 46.0566 21.7444 45.0039 21.6808C44.5195 21.6611 44.2745 21.9552 44.0372 22.2433C43.5505 22.8381 42.9345 23.3138 42.2361 23.6344C41.5377 23.955 40.7753 24.1118 40.0071 24.0931C39.2388 24.0743 38.485 23.8804 37.8031 23.5261C37.1211 23.1719 36.5291 22.6666 36.072 22.0488C35.9827 21.9275 35.8653 21.8296 35.73 21.7634C35.5946 21.6973 35.4453 21.6648 35.2947 21.6688C33.2387 21.7163 31.2836 22.5692 29.8502 24.0438C29.7317 24.1649 29.6194 24.2903 29.5098 24.4177C28.5418 23.8283 27.4446 23.4839 26.3134 23.4143C25.8152 23.3775 25.5563 23.6941 25.348 23.9483C24.9332 24.4551 24.4083 24.8605 23.8131 25.1336C23.2179 25.4067 22.5683 25.5404 21.9136 25.5244C21.259 25.5084 20.6166 25.3432 20.0355 25.0413C19.4544 24.7395 18.9498 24.3089 18.5603 23.7825C18.4707 23.6615 18.3533 23.5638 18.218 23.4977C18.0827 23.4315 17.9335 23.3988 17.783 23.4024C15.9518 23.449 14.2112 24.2091 12.9324 25.5207C11.6536 26.8323 10.9378 28.5915 10.9375 30.4233V36.5083C10.9375 36.757 11.0363 36.9954 11.2121 37.1712C11.3879 37.347 11.6264 37.4458 11.875 37.4458H27.6044V39.5977C27.6044 39.8463 27.7031 40.0848 27.879 40.2606C28.0548 40.4364 28.2932 40.5352 28.5419 40.5352ZM53.5522 25.3074C54.1302 25.9634 54.8408 26.4893 55.6372 26.8503C56.4335 27.2112 57.2974 27.3991 58.1717 27.4014C59.0461 27.4037 59.9109 27.2204 60.7091 26.8636C61.5074 26.5068 62.2208 25.9846 62.8022 25.3316C64.0213 25.5155 65.1341 26.1304 65.9387 27.0646C66.7433 27.9987 67.1863 29.1904 67.1875 30.4233V35.5708H52.4203V29.5566C52.4213 28.3081 52.1243 27.0775 51.5539 25.9669C52.1665 25.6097 52.8473 25.385 53.5522 25.3074ZM34.8906 23.5722C35.5388 24.3226 36.3407 24.9251 37.2418 25.3388C38.143 25.7525 39.1226 25.9678 40.1142 25.9701C41.1058 25.9725 42.0863 25.7618 42.9895 25.3524C43.8926 24.943 44.6973 24.3444 45.3491 23.5971C46.7886 23.7962 48.1076 24.5091 49.0627 25.6044C50.0178 26.6997 50.5446 28.1034 50.5459 29.5566V38.6602H29.4794V29.5566C29.4887 28.0685 30.0455 26.636 31.0435 25.5322C32.0416 24.4285 33.411 23.7308 34.8906 23.5722ZM12.8125 35.5708V30.4233C12.8204 29.1602 13.2892 27.9434 14.1309 27.0015C14.9726 26.0596 16.1291 25.4574 17.3834 25.308C17.9614 25.9638 18.672 26.4895 19.4683 26.8504C20.2645 27.2112 21.1283 27.3989 22.0024 27.4011C22.8766 27.4034 23.7413 27.22 24.5394 26.8633C25.3374 26.5065 26.0507 25.9845 26.632 25.3316C27.2775 25.4281 27.8986 25.6472 28.4617 25.9772C27.8965 27.0856 27.6026 28.3124 27.6044 29.5566V35.5708H12.8125Z" fill="black"/>
<path d="M64.4303 16.9029V14.1987C64.4303 12.5157 63.7618 10.9017 62.5717 9.71168C61.3817 8.52164 59.7677 7.85309 58.0847 7.85309C56.4017 7.85309 54.7877 8.52164 53.5977 9.71168C52.4076 10.9017 51.7391 12.5157 51.7391 14.1987V16.9029C51.7391 18.5859 52.4076 20.1999 53.5977 21.39C54.7877 22.58 56.4017 23.2486 58.0847 23.2486C59.7677 23.2486 61.3817 22.58 62.5717 21.39C63.7618 20.1999 64.4303 18.5859 64.4303 16.9029ZM53.6141 16.9029V14.1987C53.6141 13.013 54.0851 11.8759 54.9235 11.0375C55.7619 10.1991 56.899 9.72809 58.0847 9.72809C59.2704 9.72809 60.4075 10.1991 61.2459 11.0375C62.0843 11.8759 62.5553 13.013 62.5553 14.1987V16.9029C62.5553 18.0886 62.0843 19.2257 61.2459 20.0641C60.4075 20.9025 59.2704 21.3736 58.0847 21.3736C56.899 21.3736 55.7619 20.9025 54.9235 20.0641C54.0851 19.2257 53.6141 18.0886 53.6141 16.9029Z" fill="black"/>
<path d="M28.2609 16.9029V14.1987C28.2609 13.3654 28.0968 12.5402 27.7779 11.7703C27.459 11.0005 26.9916 10.3009 26.4024 9.71168C25.8131 9.12243 25.1136 8.65502 24.3437 8.33612C23.5738 8.01722 22.7486 7.85309 21.9153 7.85309C21.082 7.85309 20.2568 8.01722 19.487 8.33612C18.7171 8.65502 18.0175 9.12243 17.4283 9.71168C16.839 10.3009 16.3716 11.0005 16.0527 11.7703C15.7338 12.5402 15.5697 13.3654 15.5697 14.1987V16.9029C15.5697 17.7363 15.7338 18.5614 16.0527 19.3313C16.3716 20.1012 16.839 20.8007 17.4283 21.39C18.0175 21.9792 18.7171 22.4466 19.487 22.7655C20.2568 23.0844 21.082 23.2486 21.9153 23.2486C22.7486 23.2486 23.5738 23.0844 24.3437 22.7655C25.1136 22.4466 25.8131 21.9792 26.4024 21.39C26.9916 20.8007 27.459 20.1012 27.7779 19.3313C28.0968 18.5614 28.2609 17.7363 28.2609 16.9029ZM17.4447 16.9029V14.1987C17.4447 13.013 17.9157 11.8759 18.7541 11.0375C19.5925 10.1991 20.7296 9.72809 21.9153 9.72809C23.101 9.72809 24.2381 10.1991 25.0765 11.0375C25.9149 11.8759 26.3859 13.013 26.3859 14.1987V16.9029C26.3859 17.49 26.2703 18.0714 26.0456 18.6138C25.821 19.1562 25.4917 19.649 25.0765 20.0641C24.6614 20.4793 24.1686 20.8086 23.6262 21.0333C23.0838 21.2579 22.5024 21.3736 21.9153 21.3736C21.3282 21.3736 20.7469 21.2579 20.2045 21.0333C19.6621 20.8086 19.1693 20.4793 18.7541 20.0641C18.339 19.649 18.0097 19.1562 17.785 18.6138C17.5603 18.0714 17.4447 17.49 17.4447 16.9029Z" fill="black"/>
</svg>
