<svg width="80" height="80" viewBox="0 0 80 80" fill="none" xmlns="http://www.w3.org/2000/svg">
<path d="M26.8702 59.6857C26.8636 59.6857 26.8572 59.6846 26.8506 59.6846C26.8441 59.6846 26.8377 59.6855 26.8311 59.6857C26.3641 59.6801 25.9181 59.4909 25.5896 59.1589C25.2611 58.827 25.0766 58.379 25.076 57.9119C25.076 57.6633 24.9772 57.4248 24.8014 57.249C24.6256 57.0732 24.3871 56.9744 24.1385 56.9744C23.8898 56.9744 23.6514 57.0732 23.4755 57.249C23.2997 57.4248 23.201 57.6633 23.201 57.9119C23.2021 58.7163 23.4685 59.4978 23.9588 60.1355C24.4491 60.7731 25.1361 61.2313 25.9131 61.439V62.2377C25.9131 62.4864 26.0119 62.7248 26.1877 62.9006C26.3636 63.0764 26.602 63.1752 26.8506 63.1752C27.0993 63.1752 27.3377 63.0764 27.5136 62.9006C27.6894 62.7248 27.7881 62.4864 27.7881 62.2377V61.439C28.6445 61.2113 29.3887 60.68 29.8821 59.944C30.3754 59.208 30.5842 58.3176 30.4694 57.439C30.3547 56.5605 29.9242 55.7536 29.2583 55.1691C28.5925 54.5845 27.7367 54.2621 26.8506 54.2621C26.4996 54.2622 26.1565 54.1581 25.8646 53.9632C25.5727 53.7682 25.3452 53.491 25.2108 53.1668C25.0765 52.8425 25.0413 52.4857 25.1097 52.1414C25.1782 51.7971 25.3471 51.4809 25.5953 51.2326C25.8435 50.9844 26.1597 50.8153 26.504 50.7468C26.8483 50.6783 27.2051 50.7135 27.5294 50.8478C27.8537 50.9821 28.1309 51.2096 28.3259 51.5014C28.5209 51.7933 28.625 52.1364 28.625 52.4874C28.625 52.7361 28.7238 52.9745 28.8996 53.1503C29.0754 53.3261 29.3139 53.4249 29.5625 53.4249C29.8112 53.4249 30.0496 53.3261 30.2254 53.1503C30.4013 52.9745 30.5 52.7361 30.5 52.4874C30.4989 51.683 30.2325 50.9014 29.7422 50.2637C29.2518 49.6261 28.5648 49.1679 27.7877 48.9602V48.2849C27.7877 48.0363 27.6889 47.7978 27.5131 47.622C27.3373 47.4462 27.0988 47.3474 26.8502 47.3474C26.6015 47.3474 26.3631 47.4462 26.1873 47.622C26.0115 47.7978 25.9127 48.0363 25.9127 48.2849V48.9602C25.0564 49.1879 24.3121 49.7192 23.8187 50.4552C23.3254 51.1912 23.1166 52.0816 23.2314 52.9601C23.3461 53.8387 23.7766 54.6456 24.4425 55.2301C25.1083 55.8147 25.9641 56.1371 26.8502 56.1371C27.3184 56.1381 27.7673 56.3241 28.099 56.6547C28.4307 56.9852 28.6182 57.4335 28.6208 57.9017C28.6234 58.37 28.4408 58.8202 28.1128 59.1544C27.7847 59.4886 27.3379 59.6796 26.8697 59.6857H26.8702Z" fill="black"/>
<path d="M74.7644 26.0528H57.4976C56.5238 26.0539 55.5901 26.4413 54.9015 27.1299C54.2129 27.8186 53.8256 28.7522 53.8245 29.7261V29.9392C53.8244 30.4555 53.9333 30.9659 54.1442 31.4372C54.3551 31.9084 54.6632 32.3297 55.0483 32.6736C54.6632 33.0174 54.3551 33.4387 54.1442 33.91C53.9333 34.3812 53.8243 34.8917 53.8245 35.4079V35.6212C53.8243 36.1375 53.9333 36.6479 54.1441 37.1192C54.355 37.5904 54.6631 38.0117 55.0481 38.3556C54.6631 38.6995 54.355 39.1208 54.1442 39.592C53.9333 40.0633 53.8244 40.5737 53.8245 41.09V41.3031C53.8244 41.8194 53.9333 42.3298 54.1442 42.8011C54.3551 43.2723 54.6632 43.6936 55.0483 44.0375C54.6632 44.3813 54.3551 44.8027 54.1442 45.2739C53.9333 45.7451 53.8244 46.2556 53.8245 46.7719V46.9844C53.8243 47.5006 53.9333 48.0111 54.1442 48.4823C54.3551 48.9536 54.6632 49.3749 55.0483 49.7187C54.6632 50.0626 54.3551 50.4839 54.1442 50.9551C53.9333 51.4264 53.8244 51.9368 53.8245 52.4531V52.6662C53.8243 53.1825 53.9333 53.693 54.1442 54.1642C54.3551 54.6354 54.6632 55.0568 55.0483 55.4006C54.6632 55.7444 54.3551 56.1658 54.1442 56.637C53.9333 57.1082 53.8243 57.6187 53.8245 58.135V58.3483C53.8244 58.8645 53.9333 59.375 54.1442 59.8462C54.3551 60.3174 54.6632 60.7388 55.0483 61.0826C54.6632 61.4265 54.3551 61.8478 54.1442 62.319C53.9333 62.7903 53.8243 63.3007 53.8245 63.817V64.0301C53.8243 64.5464 53.9333 65.0569 54.1442 65.5281C54.3551 65.9993 54.6632 66.4207 55.0483 66.7645C54.6632 67.1084 54.3551 67.5297 54.1442 68.0009C53.9333 68.4721 53.8244 68.9826 53.8245 69.4989V69.712C53.8256 70.6859 54.2129 71.6195 54.9015 72.3082C55.5901 72.9968 56.5238 73.3842 57.4976 73.3853H74.7644C75.7383 73.3842 76.6719 72.9968 77.3605 72.3081C78.0491 71.6194 78.4365 70.6857 78.4375 69.7118V69.4987C78.4376 68.9824 78.3286 68.472 78.1177 68.0008C77.9068 67.5295 77.5987 67.1082 77.2136 66.7643C77.5987 66.4205 77.9069 65.9992 78.1178 65.528C78.3287 65.0567 78.4377 64.5463 78.4375 64.03V63.8169C78.4376 63.3006 78.3287 62.7901 78.1178 62.3189C77.9069 61.8477 77.5988 61.4263 77.2137 61.0825C77.5988 60.7386 77.9069 60.3173 78.1178 59.846C78.3286 59.3748 78.4376 58.8644 78.4375 58.3481V58.1348C78.4377 57.6185 78.3287 57.1081 78.1178 56.6368C77.9069 56.1656 77.5987 55.7443 77.2136 55.4004C77.5987 55.0566 77.9068 54.6353 78.1178 54.1641C78.3287 53.6928 78.4376 53.1823 78.4375 52.6661V52.4531C78.4376 51.9368 78.3286 51.4264 78.1178 50.9552C77.9069 50.484 77.5988 50.0626 77.2137 49.7187C77.5988 49.3749 77.9069 48.9535 78.1178 48.4823C78.3287 48.0111 78.4376 47.5006 78.4375 46.9844V46.7712C78.4376 46.255 78.3287 45.7445 78.1178 45.2733C77.9069 44.8021 77.5988 44.3807 77.2137 44.0369C77.5988 43.693 77.9069 43.2716 78.1178 42.8004C78.3287 42.3292 78.4376 41.8187 78.4375 41.3025V41.0894C78.4376 40.5731 78.3287 40.0626 78.1178 39.5914C77.9069 39.1202 77.5988 38.6988 77.2137 38.355C77.5988 38.0111 77.9069 37.5898 78.1178 37.1186C78.3287 36.6473 78.4376 36.1369 78.4375 35.6206V35.4078C78.4376 34.8915 78.3287 34.3811 78.1178 33.9098C77.9069 33.4386 77.5988 33.0173 77.2137 32.6734C77.5988 32.3295 77.9069 31.9082 78.1178 31.437C78.3286 30.9658 78.4376 30.4553 78.4375 29.939V29.7259C78.4364 28.7521 78.049 27.8185 77.3604 27.1299C76.6718 26.4413 75.7382 26.0539 74.7644 26.0528ZM76.5625 69.7118C76.562 70.1886 76.3723 70.6457 76.0352 70.9828C75.6982 71.3199 75.2411 71.5096 74.7644 71.5101H57.4976C57.0209 71.5096 56.5638 71.32 56.2267 70.9828C55.8896 70.6457 55.7 70.1886 55.6995 69.7118V69.4987C55.7 69.028 55.885 68.5762 56.2148 68.2403C56.5446 67.9043 56.9929 67.711 57.4636 67.7018H74.7984C75.2691 67.7111 75.7174 67.9044 76.0471 68.2403C76.3769 68.5762 76.5619 69.028 76.5625 69.4987V69.7118ZM76.5625 64.0301C76.5619 64.5009 76.3769 64.9526 76.0471 65.2886C75.7174 65.6245 75.2691 65.8178 74.7984 65.827H57.4636C56.9929 65.8178 56.5446 65.6245 56.2148 65.2886C55.885 64.9527 55.7 64.5009 55.6995 64.0301V63.817C55.7 63.3466 55.8848 62.8951 56.2141 62.5592C56.5435 62.2234 56.9913 62.0299 57.4616 62.0201H74.8005C75.2708 62.0299 75.7185 62.2234 76.0479 62.5593C76.3772 62.8951 76.5619 63.3466 76.5625 63.817V64.0301ZM76.5625 58.3483C76.5619 58.8186 76.3772 59.2701 76.0478 59.6059C75.7185 59.9418 75.2707 60.1353 74.8005 60.1451H57.4616C56.9913 60.1354 56.5435 59.9418 56.2142 59.606C55.8848 59.2701 55.7001 58.8186 55.6995 58.3483V58.135C55.7 57.6642 55.885 57.2124 56.2148 56.8765C56.5446 56.5405 56.9929 56.3473 57.4636 56.3381H74.7984C75.2691 56.3473 75.7174 56.5406 76.0472 56.8765C76.377 57.2124 76.562 57.6642 76.5625 58.135V58.3483ZM76.5625 52.6664C76.5619 53.1371 76.3769 53.5889 76.0471 53.9248C75.7174 54.2607 75.2691 54.454 74.7984 54.4633H57.4636C56.9929 54.4541 56.5446 54.2608 56.2148 53.9248C55.885 53.5889 55.7 53.1371 55.6995 52.6664V52.4531C55.7001 51.9827 55.8848 51.5312 56.2142 51.1954C56.5435 50.8595 56.9913 50.666 57.4616 50.6562H74.8005C75.2707 50.666 75.7185 50.8596 76.0478 51.1954C76.3772 51.5313 76.5619 51.9827 76.5625 52.4531V52.6664ZM76.5625 46.9847C76.562 47.4551 76.3773 47.9066 76.0479 48.2424C75.7186 48.5783 75.2708 48.7718 74.8005 48.7815H57.4616C56.9913 48.7718 56.5435 48.5783 56.2141 48.2424C55.8848 47.9066 55.7 47.4551 55.6995 46.9847V46.7715C55.7 46.3011 55.8848 45.8496 56.2141 45.5138C56.5435 45.1779 56.9913 44.9844 57.4616 44.9747H74.8005C75.2708 44.9844 75.7185 45.178 76.0479 45.5138C76.3772 45.8497 76.5619 46.3012 76.5625 46.7715V46.9847ZM76.5625 41.3028C76.5619 41.7732 76.3772 42.2246 76.0478 42.5605C75.7185 42.8963 75.2707 43.0899 74.8005 43.0997H57.4616C56.9913 43.0899 56.5435 42.8964 56.2142 42.5605C55.8848 42.2247 55.7001 41.7732 55.6995 41.3028V41.0897C55.7 40.6193 55.8848 40.1678 56.2141 39.8319C56.5435 39.496 56.9913 39.3025 57.4616 39.2928H74.8005C75.2708 39.3026 75.7185 39.4961 76.0479 39.8319C76.3772 40.1678 76.5619 40.6193 76.5625 41.0897V41.3028ZM76.5625 35.6211C76.5619 36.0915 76.3772 36.5429 76.0479 36.8788C75.7185 37.2147 75.2708 37.4082 74.8005 37.4179H57.4616C56.9913 37.4082 56.5435 37.2147 56.2141 36.8788C55.8848 36.543 55.7 36.0915 55.6995 35.6211V35.4078C55.7 34.9372 55.8849 34.4856 56.2144 34.1497C56.544 33.8138 56.992 33.6204 57.4625 33.6109H74.7995C75.27 33.6204 75.718 33.8138 76.0476 34.1497C76.3771 34.4856 76.562 34.9372 76.5625 35.4078V35.6211ZM76.5625 29.9392C76.5619 30.4097 76.3771 30.8614 76.0475 31.1972C75.718 31.5331 75.27 31.7266 74.7995 31.7361H57.4625C56.992 31.7266 56.544 31.5331 56.2145 31.1972C55.8849 30.8614 55.7001 30.4097 55.6995 29.9392V29.7261C55.7 29.2493 55.8896 28.7922 56.2267 28.4551C56.5638 28.118 57.0209 27.9283 57.4976 27.9278H74.7644C75.2411 27.9284 75.6982 28.118 76.0352 28.4551C76.3723 28.7923 76.562 29.2493 76.5625 29.7261V29.9392Z" fill="black"/>
<path d="M37.2866 17.7158C37.1343 17.5356 36.9198 17.4195 36.6857 17.3905C36.4516 17.3616 36.2152 17.4219 36.0236 17.5595L8.71205 37.173C8.61205 37.2448 8.52717 37.3356 8.46227 37.4402C8.39737 37.5448 8.3537 37.6612 8.33377 37.7827C8.31385 37.9042 8.31804 38.0284 8.34612 38.1483C8.37421 38.2682 8.42562 38.3813 8.49744 38.4813C8.56926 38.5813 8.66007 38.6662 8.76468 38.7311C8.8693 38.796 8.98568 38.8397 9.10717 38.8596C9.22867 38.8795 9.35289 38.8753 9.47276 38.8473C9.59263 38.8192 9.7058 38.7678 9.8058 38.6959L36.4135 19.5878L45.2292 30.0225C45.385 30.2069 45.606 30.3241 45.8461 30.3497C46.0861 30.3753 46.3268 30.3073 46.518 30.1598L68.4644 13.2355L71.4558 16.6753C71.5775 16.8152 71.7379 16.9159 71.9168 16.9647C72.0957 17.0134 72.2851 17.008 72.4609 16.9491C72.6367 16.8902 72.7911 16.7806 72.9046 16.6339C73.0181 16.4873 73.0856 16.3103 73.0985 16.1253L73.653 8.17219C73.6702 7.92423 73.5882 7.6796 73.425 7.49207C73.2619 7.30455 73.0309 7.18949 72.783 7.17219L64.8299 6.61782C64.6449 6.6049 64.4602 6.64714 64.2993 6.73918C64.1383 6.83122 64.0082 6.96893 63.9255 7.13489C63.8428 7.30086 63.8112 7.48762 63.8346 7.67157C63.8581 7.85551 63.9355 8.02837 64.0572 8.16828L67.2319 11.8188L46.083 28.1277L37.2866 17.7158ZM66.9571 8.645L71.7174 8.97688L71.3855 13.737L66.9571 8.645Z" fill="black"/>
<path d="M5.23563 73.243H22.5023C23.4762 73.2419 24.4098 72.8546 25.0984 72.166C25.7871 71.4774 26.1744 70.5437 26.1755 69.5699V69.3568C26.1756 68.8405 26.0667 68.3301 25.8559 67.8589C25.645 67.3876 25.337 66.9663 24.952 66.6224C25.2361 66.3612 25.4785 66.058 25.6708 65.7235C26.4543 65.8137 27.2457 65.8137 28.0292 65.7235C28.2389 66.0904 28.5089 66.4193 28.8278 66.6964C28.42 67.0406 28.0922 67.4696 27.8674 67.9536C27.6425 68.4375 27.5261 68.9647 27.5261 69.4983V69.7114C27.5272 70.6853 27.9145 71.619 28.6031 72.3076C29.2917 72.9962 30.2254 73.3836 31.1992 73.3847H48.4656C49.4395 73.3836 50.3731 72.9962 51.0617 72.3076C51.7503 71.619 52.1377 70.6853 52.1387 69.7114V69.4983C52.1388 68.9635 52.0218 68.4351 51.796 67.9503C51.5702 67.4654 51.241 67.0359 50.8316 66.6918C51.2411 66.3382 51.5698 65.9006 51.7954 65.4088C52.0209 64.917 52.138 64.3824 52.1387 63.8414C52.1394 63.3003 52.0237 62.7654 51.7995 62.273C51.5752 61.7806 51.2477 61.3422 50.8391 60.9875C51.2471 60.6335 51.5743 60.1959 51.7985 59.7044C52.0227 59.2129 52.1388 58.6789 52.1388 58.1387C52.1388 57.5985 52.0227 57.0646 51.7985 56.5731C51.5743 56.0816 51.2471 55.644 50.8391 55.2899C51.2471 54.9358 51.5743 54.4982 51.7985 54.0067C52.0227 53.5153 52.1388 52.9813 52.1388 52.4411C52.1388 51.9009 52.0227 51.367 51.7985 50.8755C51.5743 50.384 51.2471 49.9465 50.8391 49.5924C51.2436 49.2413 51.5687 48.808 51.7928 48.3214C52.0169 47.8349 52.1348 47.3062 52.1387 46.7705C52.1425 46.2349 52.0323 45.7045 51.8153 45.2148C51.5983 44.725 51.2794 44.2871 50.88 43.9302C51.2753 43.5862 51.5922 43.1614 51.8093 42.6844C52.0265 42.2075 52.1388 41.6895 52.1387 41.1655V40.9532C52.1378 39.9793 51.7505 39.0455 51.0618 38.3569C50.3732 37.6682 49.4395 37.2808 48.4656 37.2797H31.1989C30.225 37.2808 29.2913 37.6682 28.6027 38.3569C27.9141 39.0455 27.5268 39.9793 27.5258 40.9532V41.1663C27.5257 41.6902 27.638 42.2081 27.8551 42.685C28.0722 43.1619 28.389 43.5867 28.7842 43.9307C28.5017 44.1839 28.2588 44.4782 28.0636 44.8035C26.6637 44.6387 25.245 44.7572 23.8918 45.152C22.5387 45.5467 21.2787 46.2095 20.187 47.1011C19.0952 47.9927 18.194 49.0947 17.5368 50.3417C16.8796 51.5887 16.48 52.9552 16.3617 54.3597H5.34219C4.57234 54.3592 3.82071 54.5939 3.18797 55.0324C2.55523 55.471 2.0716 56.0924 1.80184 56.8134C1.53209 57.5344 1.48911 58.3207 1.67864 59.0668C1.86818 59.813 2.28119 60.4834 2.86235 60.9883C2.46059 61.337 2.13711 61.7667 1.91314 62.2492C1.68918 62.7317 1.56979 63.2561 1.56281 63.788C1.55583 64.3199 1.66142 64.8473 1.87265 65.3355C2.08388 65.8237 2.39597 66.2617 2.78844 66.6208C2.40276 66.9647 2.09416 67.3862 1.88288 67.8577C1.6716 68.3292 1.56242 68.8401 1.5625 69.3568V69.5699C1.56362 70.5437 1.95097 71.4773 2.63957 72.1659C3.32817 72.8545 4.2618 73.2419 5.23563 73.243ZM50.2637 69.7118C50.2632 70.1885 50.0737 70.6456 49.7365 70.9827C49.3994 71.3199 48.9424 71.5095 48.4656 71.51H31.1989C30.7222 71.5095 30.2651 71.3198 29.928 70.9827C29.5909 70.6456 29.4013 70.1885 29.4008 69.7118V69.4986C29.4013 69.0219 29.5909 68.5649 29.928 68.2278C30.2651 67.8907 30.7222 67.701 31.1989 67.7005H48.4656C48.9424 67.701 49.3994 67.8906 49.7365 68.2277C50.0736 68.5648 50.2632 69.0219 50.2637 69.4986V69.7118ZM48.3591 65.7414H31.3055C30.8517 65.7427 30.4126 65.5815 30.0673 65.2871C31.9967 64.6643 33.7062 63.4996 34.9917 61.9319H48.3594C48.8616 61.9365 49.3416 62.1391 49.6951 62.4959C50.0486 62.8526 50.247 63.3345 50.247 63.8367C50.247 64.3389 50.0486 64.8208 49.6951 65.1775C49.3416 65.5342 48.8616 65.7369 48.3594 65.7414H48.3591ZM48.3591 60.0438H36.2272C36.8362 58.8563 37.2119 57.5632 37.3341 56.2343H48.3594C48.8616 56.2388 49.3416 56.4415 49.6951 56.7982C50.0486 57.1549 50.247 57.6368 50.247 58.139C50.247 58.6412 50.0486 59.1231 49.6951 59.4798C49.3416 59.8366 48.8616 60.0392 48.3594 60.0438H48.3591ZM48.3591 54.3461H37.3384C37.2242 53.019 36.8571 51.726 36.257 50.5368H48.3594C48.8645 50.5368 49.349 50.7374 49.7062 51.0946C50.0634 51.4518 50.2641 51.9363 50.2641 52.4414C50.2641 52.9466 50.0634 53.4311 49.7062 53.7883C49.349 54.1455 48.8645 54.3461 48.3594 54.3461H48.3591ZM48.3591 48.6486H35.0373C33.7592 47.0673 32.052 45.8884 30.1205 45.2533C30.4572 44.9852 30.875 44.8392 31.3055 44.8391H48.3594C48.8616 44.8436 49.3416 45.0463 49.6951 45.4031C50.0486 45.7598 50.247 46.2417 50.247 46.7439C50.247 47.2461 50.0486 47.728 49.6951 48.0847C49.3416 48.4414 48.8616 48.6441 48.3594 48.6486H48.3591ZM29.4008 40.9532C29.4013 40.4764 29.5909 40.0194 29.928 39.6823C30.2651 39.3452 30.7222 39.1556 31.1989 39.155H48.4656C48.9424 39.1555 49.3994 39.3451 49.7365 39.6822C50.0736 40.0194 50.2632 40.4764 50.2637 40.9532V41.1663C50.2632 41.643 50.0737 42.1001 49.7365 42.4373C49.3994 42.7744 48.9424 42.964 48.4656 42.9646H31.1989C30.7222 42.964 30.2651 42.7743 29.928 42.4372C29.5909 42.1001 29.4013 41.643 29.4008 41.1663V40.9532ZM26.8506 46.6064C28.5624 46.6064 30.2358 47.1141 31.6592 48.0651C33.0825 49.0161 34.1918 50.3679 34.8469 51.9494C35.502 53.5309 35.6734 55.2712 35.3395 56.9501C35.0055 58.629 34.1812 60.1712 32.9708 61.3817C31.7604 62.5921 30.2182 63.4164 28.5393 63.7504C26.8603 64.0844 25.1201 63.913 23.5385 63.258C21.957 62.6029 20.6053 61.4936 19.6542 60.0703C18.7031 58.6469 18.1955 56.9736 18.1955 55.2618C18.198 52.967 19.1106 50.7669 20.7332 49.1442C22.3558 47.5215 24.5559 46.6087 26.8506 46.6061V46.6064ZM5.34219 56.2344H16.3672C16.4894 57.5633 16.8651 58.8565 17.4741 60.0439H5.34219C4.84 60.0394 4.35993 59.8367 4.00643 59.48C3.65292 59.1233 3.4546 58.6414 3.4546 58.1392C3.4546 57.637 3.65292 57.1551 4.00643 56.7984C4.35993 56.4416 4.84 56.239 5.34219 56.2344ZM5.34219 61.9321H18.7095C19.9941 63.4987 21.7022 64.6629 23.63 65.2858C23.3926 65.4888 23.1087 65.63 22.8036 65.6968H4.93531C4.47638 65.5966 4.07064 65.3304 3.79608 64.9493C3.52153 64.5682 3.39753 64.099 3.44792 63.632C3.49832 63.165 3.71955 62.7331 4.0691 62.4193C4.41864 62.1055 4.87184 61.932 5.34156 61.9321H5.34219ZM3.4375 69.3568C3.43817 68.9376 3.58503 68.5319 3.85277 68.2094C4.12052 67.887 4.49236 67.668 4.90422 67.5904L22.8273 67.5894C23.2406 67.6657 23.6141 67.8842 23.8831 68.207C24.1522 68.5298 24.2998 68.9365 24.3005 69.3568V69.5699C24.3 70.0466 24.1104 70.5037 23.7733 70.8408C23.4362 71.1779 22.9791 71.3675 22.5023 71.368H5.23563C4.7589 71.3675 4.30185 71.1779 3.96475 70.8408C3.62766 70.5037 3.43804 70.0466 3.4375 69.5699V69.3568Z" fill="black"/>
</svg>
